<svg id="Группа_4" data-name="Группа 4" xmlns="http://www.w3.org/2000/svg" width="32" height="32" viewBox="0 0 32 32">
  <defs>
    <style>
      .cls-1 {
        fill: #ffa800;
      }

      .cls-2 {
        fill: #ffc600;
      }

      .cls-2, .cls-3 {
        fill-rule: evenodd;
      }

      .cls-3 {
        fill: #261c04;
      }
    </style>
  </defs>
  <rect id="Прямоугольник_25" data-name="Прямоугольник 25" class="cls-1" x="1.688" y="4.156" width="28.187" height="25.625"/>
  <path id="Эллипс_16" data-name="Эллипс 16" class="cls-2" d="M986,797c6.344,6.313,6,13,6,13H971V792S979.656,790.688,986,797Z" transform="translate(-968 -781)"/>
  <path id="Forma_1" data-name="Forma 1" class="cls-3" d="M987,798.011h0a1.987,1.987,0,0,0,0,3.974h0A1.987,1.987,0,0,0,987,798.011Zm-5.012-2.023a1.987,1.987,0,1,0-2-1.986A2,2,0,0,0,981.991,795.988ZM987,792.015h0a1.987,1.987,0,0,0,0,3.973h0A1.987,1.987,0,0,0,987,792.015ZM989,784H979v4h10v-4Zm3,11.988A1.987,1.987,0,1,0,990.012,794,1.986,1.986,0,0,0,992,795.988Zm0,6A1.987,1.987,0,1,0,990.012,800,1.987,1.987,0,0,0,992,801.985Zm-10.007,0a1.987,1.987,0,1,0-2-1.986A2,2,0,0,0,981.991,801.985Zm-4.994,6a1.987,1.987,0,1,0-2-1.987A2,2,0,0,0,977,807.982ZM997,784h-2v4h2v22H971V788h2v-4h-2c-1.885,0-3,2.148-3,4v22a2.766,2.766,0,0,0,3,3h26c1.885,0,3-1.656,3-3.508V788C1000,786.148,998.885,784,997,784Zm-20,17.985a1.987,1.987,0,1,0-2-1.986A2,2,0,0,0,977,801.985Zm0-6a1.987,1.987,0,1,0-2-1.986A2,2,0,0,0,977,795.988Zm4.994,11.994a1.987,1.987,0,1,0-2-1.987A2,2,0,0,0,981.991,807.982Zm-5.994-20a1.889,1.889,0,0,0,2-1.746v-3.492a2.023,2.023,0,0,0-4.008,0v3.492A1.889,1.889,0,0,0,976,787.984Zm16,0a1.878,1.878,0,0,0,1.985-1.746v-3.492a2,2,0,0,0-3.971,0v3.492A1.878,1.878,0,0,0,992,787.984Z" transform="translate(-968 -781)"/>
</svg>
