<svg id="Группа_3" data-name="Группа 3" xmlns="http://www.w3.org/2000/svg" width="32" height="30" viewBox="0 0 32 30">
  <defs>
    <style>
      .cls-1 {
        fill: #261c04;
      }

      .cls-1, .cls-3 {
        fill-rule: evenodd;
      }

      .cls-2 {
        fill: #ffb200;
      }

      .cls-3 {
        fill: #ffcd07;
      }
    </style>
  </defs>
  <path id="Прямоугольник_24" data-name="Прямоугольник 24" class="cls-1" d="M896,784l23.036-3,1.988,8.512-25.843,1.31Z" transform="translate(-893 -781)"/>
  <rect id="Прямоугольник_23" data-name="Прямоугольник 23" class="cls-2" x="1.531" y="4.594" width="29.157" height="24.219"/>
  <path id="Эллипс_15" data-name="Эллипс 15" class="cls-3" d="M894.188,788.187c-0.038-.657,1.311.026,1.957,0.077a24.1,24.1,0,0,1,21.831,19.481c0.262,1.41-2.491,1.269-3.976,1.255-8.857-.083-19,0-19,0v-2S894.686,796.9,894.188,788.187Z" transform="translate(-893 -781)"/>
  <path id="Forma_1" data-name="Forma 1" class="cls-1" d="M923,784H895a2.8,2.8,0,0,0-2,2v23a2.8,2.8,0,0,0,2,2h28a2.8,2.8,0,0,0,2-2V786A2.808,2.808,0,0,0,923,784Zm-0.655,16.955L913,801a3.157,3.157,0,0,1-3.112-3.3c0-1.8,1.275-3.7,3.112-3.7h9v7ZM896,808V787h26v5h-9c-3.3,0-5,2.773-5,6a4.87,4.87,0,0,0,5,5h9v5H896Zm16-10.526v0.035A2.515,2.515,0,1,0,912,797.474Z" transform="translate(-893 -781)"/>
</svg>
